<?xml version="1.0" standalone="no"?>
<!DOCTYPE svg PUBLIC "-//W3C//DTD SVG 20010904//EN"
 "http://www.w3.org/TR/2001/REC-SVG-20010904/DTD/svg10.dtd">
<svg version="1.0" xmlns="http://www.w3.org/2000/svg"
 width="800.000000pt" height="800.000000pt" viewBox="0 0 800.000000 800.000000"
 preserveAspectRatio="xMidYMid meet">

<g transform="translate(0.000000,800.000000) scale(0.100000,-0.100000)"
fill="#000000" stroke="none">
<path d="M4703 6558 c3 -13 30 -111 61 -218 31 -107 70 -260 86 -341 29 -143
60 -394 60 -483 0 -44 -1 -45 -37 -52 -49 -9 -310 3 -403 19 l-75 13 -94 -90
-95 -91 -6 36 c-4 21 -13 43 -21 51 -16 15 -66 48 -73 48 -3 0 6 -24 19 -53
15 -31 22 -61 19 -75 -7 -24 -34 -31 -34 -8 0 24 -18 28 -55 15 -28 -11 -42
-11 -71 0 -33 12 -37 11 -50 -8 -9 -12 -22 -21 -30 -21 -22 0 -17 51 10 102
23 43 23 45 5 41 -32 -9 -79 -59 -85 -92 l-7 -31 -93 90 c-75 72 -98 89 -116
86 -130 -29 -360 -44 -438 -29 l-45 9 3 129 c5 199 68 529 158 827 20 65 34
123 32 129 -4 12 -95 -206 -176 -421 -79 -208 -149 -455 -182 -639 l-11 -64
48 -49 c69 -71 73 -72 134 -40 52 27 56 27 272 30 l219 4 29 -34 c31 -35 69
-100 69 -118 0 -15 -26 -7 -131 41 -47 21 -97 39 -111 39 -13 0 -58 -11 -99
-26 -59 -20 -343 -92 -603 -153 l-39 -10 7 137 c23 446 123 879 275 1182 21
41 41 86 45 100 7 23 6 23 -14 -5 -11 -16 -52 -86 -90 -155 -183 -330 -319
-716 -360 -1020 -7 -47 -21 -121 -33 -165 l-20 -79 74 -68 c41 -38 86 -77 100
-88 26 -19 26 -19 60 6 133 100 482 204 682 204 115 0 168 -14 225 -57 27 -20
31 -28 20 -34 -27 -15 -202 -31 -275 -26 l-71 5 -84 -81 c-209 -205 -631 -548
-717 -584 -41 -18 -106 -19 -125 -4 -24 20 -28 -49 -16 -250 19 -331 59 -543
165 -864 49 -148 260 -633 271 -622 2 2 -15 54 -37 117 -157 443 -229 844
-229 1274 l0 160 128 126 c147 146 197 190 461 409 106 88 212 169 235 179 39
18 113 33 234 47 28 3 52 4 52 2 0 -5 -191 -172 -263 -230 -47 -38 -62 -45
-86 -41 l-28 6 -6 -69 c-10 -98 -8 -298 3 -538 29 -610 101 -1096 212 -1435
71 -217 212 -500 249 -500 5 0 -5 24 -21 54 -126 230 -212 602 -251 1096 -13
173 -14 811 0 1030 9 146 9 157 -10 182 -10 15 -19 34 -19 42 0 18 129 174
193 233 25 23 63 51 86 62 38 20 41 20 41 4 0 -10 -18 -56 -40 -103 -26 -56
-40 -99 -40 -127 0 -100 85 -490 145 -661 40 -114 116 -283 120 -267 2 6 6 22
9 38 8 33 26 36 26 5 0 -24 16 -56 24 -48 10 11 76 181 115 295 69 205 121
436 136 610 6 67 5 73 -28 135 -37 69 -57 140 -39 140 29 0 213 -170 272 -252
34 -46 39 -92 13 -120 -15 -16 -15 -35 -3 -230 16 -259 17 -762 1 -953 -40
-487 -108 -806 -227 -1065 -41 -90 -42 -93 -15 -61 88 101 202 384 279 686
108 425 152 851 152 1479 l0 339 -29 -6 c-26 -6 -42 4 -128 73 -135 109 -219
186 -211 195 10 10 236 -24 268 -40 15 -8 33 -21 40 -30 7 -9 90 -78 184 -153
199 -160 528 -447 571 -500 l30 -36 -2 -211 c-2 -206 -19 -400 -49 -580 -34
-209 -132 -549 -214 -745 -53 -129 -4 -52 70 110 260 564 353 926 376 1458 l7
162 -36 -15 c-20 -8 -46 -15 -57 -15 -22 0 -226 135 -360 238 -141 109 -219
177 -358 315 l-132 131 -143 1 c-91 1 -157 6 -185 15 l-42 13 21 23 c11 12 44
32 72 45 93 39 299 26 482 -30 128 -40 293 -111 368 -158 31 -19 40 -21 51
-11 7 7 51 48 98 91 l85 77 -18 38 c-10 20 -25 87 -34 147 -57 402 -228 874
-421 1165 -26 38 -48 70 -50 70 -1 0 22 -53 51 -119 168 -375 265 -803 265
-1172 0 -103 -3 -130 -13 -126 -7 3 -125 33 -262 66 -138 34 -292 75 -343 92
-51 16 -105 29 -121 29 -16 0 -59 -15 -95 -34 -69 -36 -134 -61 -142 -54 -7 8
54 113 79 137 28 26 17 25 283 13 173 -7 208 -12 244 -30 37 -18 44 -19 57 -6
8 8 34 27 58 44 47 32 55 46 55 93 0 85 -156 594 -260 847 -28 69 -63 155 -78
192 -26 65 -50 92 -39 46z"/>
<path d="M5267 1861 c-4 -15 -18 -20 -83 -25 -44 -4 -105 -12 -136 -18 l-57
-10 -69 -177 c-95 -243 -91 -221 -43 -221 l40 0 63 161 c34 88 70 164 78 169
9 5 51 12 94 16 l77 7 -22 -54 c-11 -30 -34 -88 -49 -129 -15 -41 -33 -87 -39
-102 -10 -28 -10 -28 30 -28 46 0 39 -12 119 199 l44 113 70 -7 c39 -4 76 -10
82 -13 8 -5 -7 -57 -51 -169 -66 -173 -66 -174 -4 -165 24 4 32 20 101 200 68
177 74 198 58 204 -10 4 -64 12 -120 19 -90 11 -101 14 -97 31 4 15 -1 18 -38
18 -33 0 -44 -4 -48 -19z"/>
<path d="M1095 1830 c-127 -17 -123 -14 -166 -125 -22 -54 -39 -105 -39 -112
0 -10 52 -13 251 -13 l251 0 -7 -27 c-12 -51 -22 -54 -181 -60 -113 -4 -171
-1 -242 11 -52 9 -97 14 -101 11 -12 -7 -35 -65 -28 -71 3 -3 45 -12 94 -21
99 -17 331 -13 439 7 l61 12 38 101 c21 56 40 108 43 115 3 9 -52 12 -253 12
-241 0 -257 1 -250 18 4 9 9 24 12 34 7 23 32 28 179 35 99 4 156 2 233 -11
57 -10 104 -16 106 -14 2 2 10 20 18 40 15 37 15 37 -11 42 -120 25 -320 32
-447 16z"/>
<path d="M1855 1830 c-121 -16 -124 -18 -153 -93 l-26 -67 -61 0 c-60 0 -61
-1 -73 -33 -7 -18 -12 -36 -12 -40 0 -4 25 -7 55 -7 30 0 55 -4 55 -9 0 -4
-13 -41 -30 -81 -16 -40 -30 -77 -30 -81 0 -5 17 -9 39 -9 l38 0 35 88 34 87
230 6 c126 4 243 7 261 8 31 1 33 4 71 104 22 56 38 104 37 105 -2 2 -45 10
-97 18 -99 15 -274 17 -373 4z m346 -84 c14 -6 15 -12 6 -36 -6 -16 -20 -31
-31 -34 -12 -3 -109 -6 -218 -6 l-196 0 11 35 c8 28 16 36 41 40 17 2 42 7 56
9 37 7 312 0 331 -8z"/>
<path d="M2434 1782 c-25 -64 -127 -328 -139 -354 -6 -16 -1 -18 36 -18 l44 0
60 157 c33 87 70 184 82 215 l22 58 -42 0 c-42 0 -42 0 -63 -58z"/>
<path d="M2673 1823 c-4 -10 -39 -103 -80 -207 -40 -104 -73 -193 -73 -198 0
-14 388 -9 495 7 54 8 103 19 108 24 10 10 145 354 141 359 -12 15 -220 32
-387 32 -179 0 -198 -2 -204 -17z m469 -79 c12 -8 7 -28 -29 -121 -26 -64 -51
-114 -61 -118 -9 -4 -109 -10 -221 -13 -172 -4 -203 -3 -199 9 105 270 98 258
132 261 56 5 363 -10 378 -18z"/>
<path d="M3539 1833 l-55 -4 -29 -79 -29 -80 -82 0 -82 0 -11 -31 c-6 -18 -11
-36 -11 -40 0 -5 34 -9 76 -9 86 0 82 8 39 -97 l-23 -58 21 -9 c26 -12 517
-14 568 -3 30 6 39 14 52 48 l16 40 -77 -8 c-98 -10 -448 -10 -458 -1 -4 5 -1
26 6 48 l13 40 208 0 207 0 11 31 c6 18 11 36 11 40 0 5 -90 9 -200 9 -110 0
-200 2 -200 5 0 27 33 75 55 81 24 6 457 -1 498 -8 14 -2 23 8 34 35 9 21 13
41 9 44 -7 8 -482 13 -567 6z"/>
<path d="M4385 1834 c-16 -2 -59 -9 -95 -15 l-65 -10 -37 -97 c-20 -53 -54
-143 -76 -199 l-39 -103 42 0 42 0 34 91 34 91 135 -7 c151 -7 270 -29 270
-50 0 -7 -6 -28 -14 -46 -32 -78 -31 -79 12 -79 38 0 40 2 60 48 45 108 48
120 26 137 -18 14 -18 14 7 15 23 0 29 9 62 93 20 51 37 95 37 99 0 22 -334
47 -435 32z m308 -89 c18 -7 16 -38 -4 -59 -8 -9 -429 -23 -429 -14 0 3 5 19
11 37 11 31 20 35 84 45 45 7 318 -1 338 -9z"/>
<path d="M5925 1829 c-112 -15 -116 -17 -144 -90 l-26 -64 -64 -5 c-64 -5 -64
-5 -77 -42 l-13 -38 60 0 c32 0 59 -2 59 -5 0 -3 -12 -34 -26 -68 -49 -116
-49 -107 0 -107 l43 0 34 88 34 87 213 3 c136 1 212 -1 212 -8 0 -8 -28 -86
-55 -152 -6 -15 -1 -18 34 -18 46 0 48 3 95 133 l18 47 63 0 c58 0 63 2 69 24
3 13 9 31 12 40 5 13 -3 16 -50 16 -31 0 -56 3 -56 8 0 4 9 31 20 60 11 29 20
56 20 61 0 29 -330 50 -475 30z m357 -87 c7 -7 7 -20 1 -39 l-10 -28 -216 -3
c-119 -1 -217 -1 -217 1 0 2 5 18 11 36 16 45 50 51 267 46 88 -1 158 -7 164
-13z"/>
<path d="M6775 1834 c-16 -2 -59 -9 -95 -15 l-66 -10 -73 -187 c-40 -103 -75
-193 -78 -199 -4 -9 7 -13 38 -13 l44 0 58 153 c32 83 62 158 66 166 5 8 33
18 63 22 106 15 344 6 364 -13 3 -3 -22 -76 -55 -161 -34 -86 -61 -158 -61
-161 0 -12 78 -6 83 7 25 61 147 379 147 382 0 19 -343 42 -435 29z"/>
</g>
</svg>
